<?xml version="1.0" encoding="utf-8"?>
<!DOCTYPE svg PUBLIC "-//W3C//DTD SVG 1.1//EN" "http://www.w3.org/Graphics/SVG/1.1/DTD/svg11.dtd">
<svg version="1.1" xmlns="http://www.w3.org/2000/svg" xmlns:xlink="http://www.w3.org/1999/xlink" x="0px" y="0px"
	 width="200px" height="200px" viewBox="0 0 595.28 841.89" enable-background="new 0 0 595.28 841.89" xml:space="preserve">
	<rect width="595.28" height="841.89"/>
<rect x="-50000" y="-50000" width="100000" height="100000" fill="#000000" /><text x="100" y="100" style="text-anchor: middle;dominant-baseline: hanging;" fill="#FFFFFF" font-family="'Helvetica'" font-size="30">200 x 200</text><g id="Layer_1">
	<path fill="#FFFFFF" d="M216.123,500.361c1.351-6.171,19.051-10.464,21.389-5.415c2.338,5.05-7.153,12.542-9.856,20.494
		c-2.704,7.952-3.685,17.573-7.622,18.764C216.094,535.395,214.01,510,216.123,500.361z"/>
	<path fill="#FFFFFF" d="M243.642,493.157c2.403-2.884,8.953-5.036,11.751-3.356c2.797,1.678,1.678,14.548-0.56,17.346
		c-2.239,2.798-8.393,5.596-11.191,2.798C240.844,507.146,240.845,496.515,243.642,493.157z"/>
	<path fill="#FFFFFF" d="M260.98,490.184c0.987-2.632,13.216-4.25,13.779-1.438c0.562,2.812,1.124,16.748-1.688,16.748
		s-9.279,3.937-11.529,0C259.293,501.557,259.293,494.684,260.98,490.184z"/>
	<path fill="#FFFFFF" d="M279.898,488.08c-2.323,2.324-2.323,15.36,0,16.522c2.323,1.161,8.132,1.323,11.037-0.419
		c2.904-1.743,1.742-15.104,0-16.846C289.191,485.595,282.221,485.757,279.898,488.08z"/>
	<path fill="#FFFFFF" d="M272.659,544.704c-0.989-1.781-6.831,5.92-6.831,8.651c0,2.733,3.633,8.716,6.375,9.107
		C278.579,563.373,274.936,548.802,272.659,544.704z"/>
	<path fill="#FFFFFF" d="M283.132,558.364c-2.081-0.925-7.741-13.66-5.009-16.394c2.732-2.731,11.384-3.187,12.75-0.91
		c1.366,2.277,1.366,14.571-0.911,15.482C287.686,557.454,287.23,560.187,283.132,558.364z"/>
	<path fill="#FFFFFF" d="M372.606,498.941c-1.352-6.171-19.052-10.464-21.389-5.415c-2.338,5.05,7.153,12.542,9.856,20.494
		s3.686,17.573,7.621,18.764C372.635,533.975,374.719,508.581,372.606,498.941z"/>
	<path fill="#FFFFFF" d="M345.136,491.717c-2.403-2.884-8.955-5.036-11.751-3.357c-2.798,1.679-1.679,14.549,0.56,17.346
		c2.237,2.798,8.393,5.596,11.191,2.798C347.933,505.705,347.932,495.074,345.136,491.717z"/>
	<path fill="#FFFFFF" d="M327.549,489.746c-0.987-2.633-13.216-4.251-13.779-1.438c-0.562,2.812-1.123,16.748,1.688,16.748
		c2.812,0,9.279,3.937,11.529,0C329.236,501.118,329.236,494.246,327.549,489.746z"/>
	<path fill="#FFFFFF" d="M308.831,487.66c2.323,2.324,2.323,15.361,0,16.522c-2.324,1.161-8.132,1.324-11.037-0.419
		c-2.904-1.742-1.742-15.104,0-16.846C299.536,485.175,306.507,485.337,308.831,487.66z"/>
	<path fill="#FFFFFF" d="M315.201,545.221c0.988-1.781,6.83,5.92,6.83,8.651c0,2.733-3.633,8.716-6.375,9.107
		C309.28,563.89,312.923,549.318,315.201,545.221z"/>
	<path fill="#FFFFFF" d="M304.727,558.881c2.081-0.925,7.742-13.66,5.01-16.394c-2.732-2.731-11.385-3.187-12.751-0.91
		s-1.366,14.571,0.911,15.482C300.172,557.971,300.629,560.703,304.727,558.881z"/>
	<path fill="#FFFFFF" d="M293.703,562.962c7.333,0,32.518,4.432,36.08,10.666c2.666,4.667,2.666,8.333-7.334,9
		s-20.079-0.666-28.746-0.666s-18.746,1.333-28.746,0.666s-10-4.333-7.333-9C261.186,567.394,286.37,562.962,293.703,562.962z"/>
	<path fill="#FFFFFF" d="M52.667,277c2.358-13.208,117.333-4.605,102,20c-9.494,15.234-22.666,14.667-33.333,24.667
		S110.667,340,97.333,344S49.333,295.667,52.667,277z"/>
	<path fill="#FFFFFF" d="M540.01,277c-2.358-13.208-117.01-4.605-102,20c9.349,15.324,22.666,14.667,33.333,24.667
		S482.01,340,495.343,344S543.344,295.667,540.01,277z"/>
	<path fill="#FFFFFF" d="M202.667,489.667c-9.893,1.979-22.667,14.666-36,10S158,473.666,156,463.666s-49.333-33.332-56-65.333
		c-5.601-26.886,5.678-40.647,18-56C158.667,291.667,272.706,285,296.706,285s138.04,6.667,178.706,57.333
		c12.322,15.353,23.602,29.114,18,56c-6.666,32-54,55.333-56,65.333s2.668,31.335-10.666,36.001s-26.107-8.021-36-10
		c-10-2-80.04-10.001-94.04-10.001C282.706,479.666,212.667,487.667,202.667,489.667z M445.229,380.135
		c-0.997-23.638-34.038-25.822-50.093-25.575c-16.053,0.247-55.99,2.855-54.455,30.17c1.535,27.315,36.646,33.645,60.49,30.866
		C422.441,413.116,446.227,403.772,445.229,380.135z M190.626,415.595c23.844,2.779,58.955-3.55,60.49-30.866
		c1.535-27.314-38.402-29.923-54.455-30.17c-16.055-0.247-49.096,1.938-50.093,25.575S169.357,413.116,190.626,415.595z
		 M312.432,450.334c6.133,0,10.252-3.529,10.252-10c0-19.412-16.137-30-28.587-30c-12.452,0-28.587,10.588-28.587,30
		c0,6.471,4.12,10,10.253,10c6.133,0,9.325-10.354,18.334-10.354C303.105,439.98,306.299,450.334,312.432,450.334z"/>
</g>
</svg>
